<?xml version="1.0" encoding="UTF-8"?>
<svg id="Layer_2" data-name="Layer 2" xmlns="http://www.w3.org/2000/svg" viewBox="0 0 179.06 179.06">
  <defs>
    <style>
      .cls-1, .cls-2 {
        fill: #231f20;
      }

      .cls-3 {
        fill: none;
      }

      .cls-3, .cls-2 {
        stroke: #231f20;
        stroke-miterlimit: 10;
        stroke-width: .5px;
      }

      .cls-4 {
        fill: #040305;
      }
    </style>
  </defs>
  <g id="Layer_1-2" data-name="Layer 1">
    <g>
      <circle class="cls-3" cx="89.53" cy="89.53" r="89.28"/>
      <circle class="cls-3" cx="89.53" cy="88.53" r="59.18"/>
      <circle class="cls-2" cx="163.68" cy="88.53" r="2.53"/>
      <circle class="cls-2" cx="15.04" cy="88.53" r="2.53"/>
      <g>
        <path class="cls-1" d="M51.93,25.05c.99-.13,2.25-.52,3.37-1.22,1.65-1.04,2.19-2.39,1.54-3.56-.61-1.07-1.68-1.31-3.88-.75-2.61.74-4.62.84-5.72-.68-1.22-1.65-.26-4.3,2.7-6.1,1.55-.94,2.85-1.29,3.69-1.37.04.51.08,1.02.13,1.52-.6.06-1.8.28-3.15,1.1-2.03,1.25-2.17,2.68-1.66,3.42.69,1.03,1.88.94,4.17.37,2.81-.68,4.52-.31,5.42,1.41.94,1.84.28,4.11-2.59,5.91-1.18.75-2.65,1.32-3.57,1.41-.15-.48-.3-.97-.44-1.45Z"/>
        <path class="cls-1" d="M73.81,14.52c.23.96.45,1.79.69,2.51-.53.13-1.06.26-1.58.4-.17-.49-.34-.98-.5-1.47-.01,0-.03,0-.04.01-.28.87-1.04,2.11-2.74,2.67-1.5.48-3.58.41-4.83-2.69-.68-1.73-1.36-3.45-2.04-5.18.67-.26,1.33-.51,2.01-.76.59,1.65,1.19,3.31,1.78,4.96.62,1.71,1.6,2.63,3.22,2.11,1.2-.38,1.82-1.39,1.96-2.22.04-.28.02-.6-.06-.9-.51-1.88-1.02-3.76-1.53-5.64.68-.19,1.37-.36,2.06-.53.54,2.24,1.08,4.49,1.61,6.73Z"/>
        <path class="cls-1" d="M80.24,14.93c1.28-2.06,2.7-4.08,4.26-6.05.45-.54.89-1.02,1.39-1.55,0-.01,0-.03,0-.04-2.06.08-4.11.25-6.15.52-.06-.46-.12-.92-.18-1.38,2.94-.38,5.89-.58,8.84-.58,0,.36-.01.72-.02,1.08-1.7,1.85-3.26,3.76-4.68,5.72-.39.56-.78,1.07-1.2,1.61,0,.01,0,.03,0,.04,2-.2,4-.3,6.01-.3,0,.46,0,.92,0,1.38-2.72,0-5.44.19-8.15.56-.05-.33-.09-.66-.14-.99Z"/>
        <path class="cls-1" d="M103.47,14.51c-.23.96-.41,1.8-.52,2.54-.53-.13-1.06-.25-1.59-.36.07-.51.15-1.03.22-1.54-.01,0-.03,0-.04,0-.65.65-1.88,1.41-3.63,1.14-1.55-.25-3.33-1.25-3.04-4.58.18-1.85.35-3.69.53-5.54.7.07,1.4.14,2.1.23-.22,1.74-.44,3.49-.66,5.23-.22,1.8.22,3.07,1.89,3.33,1.23.2,2.24-.41,2.74-1.1.16-.23.29-.52.35-.83.4-1.91.79-3.81,1.19-5.72.69.14,1.38.3,2.07.46-.54,2.24-1.07,4.49-1.61,6.73Z"/>
        <path class="cls-1" d="M113.44,15.02s.03.01.04.02c.38-.21.9-.44,1.33-.62,1.44-.58,2.93-1.11,4.45-1.59.78.38,1.56.77,2.33,1.18-1.97.44-3.88.96-5.73,1.56.74,2.38,1.33,4.76,1.78,7.12-.67-.36-1.35-.71-2.03-1.05-.39-1.89-.87-3.78-1.45-5.68-.44.17-.88.34-1.31.52-.45,1.11-.89,2.21-1.34,3.32-.57-.23-1.14-.45-1.71-.66,1.61-4.37,3.22-8.73,4.84-13.1.7.26,1.41.53,2.1.81-1.1,2.72-2.2,5.45-3.3,8.17Z"/>
        <path class="cls-1" d="M131.71,17.16c-.33.49-1.06.54-1.8.02-.65-.45-.86-1.16-.53-1.65.34-.51,1.11-.56,1.8-.08.72.5.89,1.21.53,1.71ZM122.8,25.8c1.77-2.63,3.55-5.26,5.32-7.89.61.41,1.21.83,1.81,1.27-1.86,2.57-3.71,5.15-5.57,7.72-.52-.37-1.04-.74-1.57-1.1Z"/>
      </g>
      <g>
        <path class="cls-1" d="M41.6,46.13c-.44.51-.88,1.02-1.3,1.55.38.31.75.62,1.13.92.47-.57.94-1.13,1.42-1.68.11.1.22.19.33.29-.62.71-1.23,1.43-1.83,2.18-1.05-.84-2.1-1.68-3.15-2.53.61-.76,1.23-1.5,1.87-2.23.11.1.22.19.33.29-.48.55-.95,1.11-1.42,1.68.33.27.66.54.99.81.43-.53.87-1.05,1.31-1.56.11.09.22.19.33.28Z"/>
        <path class="cls-1" d="M46.11,44.1c-.1-.07-.2-.15-.29-.22,0,0-.01.01-.02.02.02.3-.11.72-.46,1.08-.5.52-1.05.51-1.36.22-.51-.48-.26-1.33.75-2.32-.01-.01-.03-.03-.04-.04-.17-.17-.53-.42-1.07.12-.24.25-.43.57-.51.85-.12-.04-.24-.09-.36-.13.1-.33.33-.73.66-1.06.8-.81,1.43-.56,1.83-.15.25.26.5.52.76.78.18.18.36.35.53.46-.14.14-.28.27-.42.41ZM45,43.11c-.52.5-1.02,1.17-.61,1.56.25.24.56.15.79-.09.33-.33.36-.71.27-.96-.02-.05-.05-.11-.09-.15-.12-.12-.24-.24-.35-.36Z"/>
        <path class="cls-1" d="M46.97,40.53c-.23-.25-.43-.47-.63-.65.14-.13.29-.26.44-.39.13.14.26.28.39.41,0,0,.02-.01.02-.02-.13-.4,0-.85.35-1.14.06-.05.1-.08.16-.11.11.13.21.25.32.38-.06.03-.11.07-.18.13-.35.3-.42.74-.22,1.09.04.06.08.14.14.2.34.39.68.78,1.02,1.16-.16.14-.31.28-.47.42-.44-.5-.89-.99-1.33-1.49Z"/>
        <path class="cls-1" d="M48.59,36.2c.18-.14.35-.28.53-.42.87,1.12,1.74,2.25,2.61,3.37-.17.13-.33.26-.5.39-.88-1.11-1.76-2.23-2.64-3.34Z"/>
        <path class="cls-1" d="M52.23,35.17c.54.32,1.08.64,1.62.96.17.11.37.25.52.36,0,0,0,0,.01,0-.05-.18-.11-.4-.16-.63-.13-.6-.25-1.2-.36-1.81.19-.13.38-.25.58-.38.1.76.21,1.51.33,2.26.18,1.08.22,1.67.05,2.17-.12.36-.31.61-.42.71-.13-.09-.26-.18-.38-.27.1-.12.22-.31.29-.52.07-.19.13-.48.09-.78,0-.06-.01-.11-.03-.13-.02-.02-.05-.05-.11-.09-.86-.49-1.73-.97-2.61-1.43.19-.14.39-.28.58-.42Z"/>
        <path class="cls-1" d="M63.1,32.03c-.16.18-.52.46-1.03.71-1.18.58-2.4.44-3.04-.73-.61-1.11-.09-2.38,1.31-3.07.56-.28.96-.35,1.15-.35.01.15.03.3.04.45-.26.02-.6.1-.98.28-1.05.52-1.45,1.42-.95,2.36.47.87,1.35,1.12,2.38.61.33-.16.65-.39.82-.58.1.11.19.21.29.32Z"/>
        <path class="cls-1" d="M63.42,27.36c.2-.09.4-.17.6-.25.23.56.47,1.11.7,1.67,0,0,0,0,.01,0,.04-.18.13-.36.28-.52.14-.15.33-.29.55-.38.44-.18,1.23-.22,1.58.72.2.54.41,1.08.61,1.62-.19.07-.38.14-.57.22-.2-.52-.4-1.04-.6-1.56-.17-.44-.51-.73-1.06-.51-.38.15-.59.5-.59.81,0,.08.02.16.06.25.23.54.45,1.08.68,1.62-.19.08-.37.16-.56.24-.56-1.3-1.12-2.61-1.68-3.91Z"/>
        <path class="cls-1" d="M69.49,25.68c.06.17-.05.35-.29.43-.21.07-.41-.02-.47-.19-.06-.18.06-.37.28-.44.23-.07.42.02.48.19ZM69.98,29.43c-.31-.92-.61-1.84-.92-2.76.2-.07.4-.13.6-.2.3.92.59,1.84.89,2.76-.19.06-.38.12-.58.19Z"/>
        <path class="cls-1" d="M71.7,24.46c.21-.06.42-.11.62-.17.37,1.37.74,2.74,1.11,4.11-.19.05-.39.1-.58.16-.38-1.37-.76-2.73-1.15-4.1Z"/>
        <path class="cls-1" d="M77.81,23.07c.21,1.15.41,2.3.62,3.45.05.25.1.54.16.73-.18.03-.36.06-.53.1-.04-.16-.08-.33-.12-.49,0,0,0,0-.01,0-.12.35-.47.67-1,.78-.78.16-1.52-.28-1.72-1.14-.23-.94.34-1.68,1.17-1.85.52-.11.91.03,1.11.23,0,0,0,0,.01,0-.11-.57-.21-1.14-.32-1.7.21-.04.42-.08.64-.12ZM77.65,25.68c-.01-.06-.04-.15-.07-.21-.15-.31-.54-.52-1-.43-.64.13-.91.68-.77,1.31.13.57.56.97,1.2.84.4-.08.72-.38.76-.79,0-.07,0-.15-.02-.23-.03-.17-.06-.33-.09-.5Z"/>
        <path class="cls-1" d="M80.32,22.68c.21-.03.43-.06.64-.08.08.6.16,1.2.23,1.8,0,0,.01,0,.01,0,.08-.16.22-.31.4-.42.17-.11.39-.2.62-.22.46-.05,1.23.12,1.32,1.11.05.57.11,1.15.16,1.72-.2.02-.4.04-.6.06-.06-.55-.11-1.11-.17-1.66-.05-.46-.29-.84-.88-.77-.4.05-.69.33-.77.62-.03.08-.02.15,0,.26.07.58.15,1.16.22,1.74-.2.03-.4.05-.6.08-.2-1.41-.39-2.81-.59-4.22Z"/>
        <path class="cls-1" d="M89.03,24.84c0,1.07-.84,1.55-1.64,1.57-.89.03-1.61-.5-1.67-1.42-.06-.97.66-1.59,1.63-1.62,1-.03,1.68.57,1.68,1.46ZM86.34,24.94c.03.64.48,1.09,1.06,1.07.58-.02,1-.5.99-1.15,0-.49-.31-1.11-1.05-1.09-.74.02-1.03.62-1.01,1.17Z"/>
        <path class="cls-1" d="M94.27,25.02c-.09,1.07-.97,1.47-1.76,1.43-.89-.04-1.56-.63-1.55-1.55.02-.97.79-1.53,1.76-1.48,1,.05,1.62.71,1.55,1.59ZM91.59,24.9c-.02.64.38,1.13.97,1.16.58.03,1.04-.41,1.08-1.07.03-.49-.21-1.14-.96-1.17-.74-.04-1.08.53-1.1,1.08Z"/>
        <path class="cls-1" d="M99.78,22.87c-.18,1.15-.37,2.31-.55,3.46-.04.25-.08.55-.09.74-.18-.03-.36-.06-.53-.08.02-.17.03-.33.05-.5,0,0,0,0-.01,0-.23.29-.67.48-1.2.41-.79-.1-1.34-.76-1.25-1.63.09-.96.87-1.48,1.71-1.37.53.07.85.33.97.58,0,0,0,0,.01,0,.09-.57.17-1.14.26-1.71.21.03.43.06.64.1ZM98.77,25.28c0-.07.02-.16,0-.22-.04-.35-.34-.67-.81-.73-.65-.09-1.08.35-1.16.99-.07.58.2,1.1.85,1.19.4.05.8-.12.97-.5.03-.07.05-.14.06-.22.02-.17.05-.33.07-.5Z"/>
        <path class="cls-1" d="M107.08,26.9c-.6-.17-1.19-.33-1.79-.49-.12.47-.24.94-.36,1.41.65.17,1.3.35,1.95.53-.04.14-.08.28-.12.42-.83-.24-1.67-.47-2.52-.68.32-1.31.65-2.62.97-3.92.86.21,1.72.44,2.58.69-.04.14-.08.28-.12.42-.65-.19-1.29-.36-1.95-.53-.11.41-.21.82-.32,1.24.6.15,1.2.32,1.8.49-.04.14-.08.28-.12.41Z"/>
        <path class="cls-1" d="M113.01,26.4c-.42,1.09-.84,2.18-1.26,3.28-.09.24-.19.52-.24.71-.17-.07-.34-.13-.51-.19.05-.16.1-.32.15-.48,0,0,0,0-.01,0-.29.24-.76.33-1.27.15-.76-.27-1.16-1.02-.89-1.86.29-.92,1.16-1.26,1.97-.98.51.18.77.5.84.78,0,0,0,0,.01,0,.2-.54.4-1.08.61-1.63.2.08.41.15.61.23ZM111.52,28.54c.02-.06.05-.15.05-.22.03-.35-.2-.73-.65-.88-.62-.22-1.14.12-1.34.72-.19.56-.03,1.12.59,1.34.39.14.82.05,1.06-.29.05-.06.08-.12.11-.2.06-.16.12-.31.18-.47Z"/>
        <path class="cls-1" d="M116.62,31.73c-.13.27-.24.51-.32.73-.16-.08-.33-.16-.49-.23.06-.15.11-.3.17-.44,0,0,0,0-.01,0-.25.14-.7.27-1.24.02-.48-.22-.96-.7-.56-1.63.22-.52.45-1.04.67-1.56.2.08.39.17.59.25-.22.49-.43.98-.65,1.47-.22.51-.19.92.32,1.15.38.17.74.07.94-.09.06-.06.13-.13.17-.22.25-.54.51-1.07.76-1.61.19.09.39.18.58.28-.31.63-.61,1.27-.92,1.9Z"/>
        <path class="cls-1" d="M120.59,34.62c-.18-.02-.53-.12-.93-.34-.89-.5-1.2-1.33-.79-2.12.41-.79,1.38-1.02,2.4-.45.33.19.59.43.7.58-.11.09-.22.19-.33.28-.1-.14-.27-.32-.58-.49-.71-.4-1.33-.17-1.61.36-.32.59-.07,1.2.52,1.53.31.17.55.22.73.26-.04.13-.07.26-.11.4Z"/>
        <path class="cls-1" d="M123.95,36.87c.05-.11.11-.22.16-.33,0,0-.01,0-.02-.01-.29.08-.71.04-1.11-.22-.58-.38-.66-.91-.44-1.27.37-.59,1.22-.53,2.35.24.01-.02.02-.03.03-.05.13-.2.31-.6-.3-1.01-.28-.18-.61-.3-.89-.32.02-.12.04-.25.06-.37.33.03.75.17,1.13.42.92.61.79,1.27.46,1.74-.21.3-.41.6-.62.89-.14.21-.27.42-.35.61-.16-.11-.31-.21-.47-.32ZM124.7,35.59c-.57-.4-1.29-.74-1.59-.27-.18.29-.04.57.22.75.37.25.74.21.96.06.05-.03.09-.07.12-.12.09-.14.19-.28.28-.42Z"/>
        <path class="cls-1" d="M129.2,36.06c-.17.22-.34.44-.51.66.25.19.5.39.74.58-.08.11-.17.21-.25.32-.25-.2-.49-.39-.74-.58-.32.41-.64.83-.95,1.24-.22.29-.25.52.03.74.13.1.24.16.31.2-.07.11-.15.22-.22.33-.12-.04-.29-.14-.48-.29-.23-.18-.37-.39-.4-.59-.05-.23.05-.48.26-.75.32-.42.63-.84.95-1.27-.15-.11-.3-.22-.45-.33.08-.11.16-.22.24-.32.15.11.3.22.45.34.14-.19.28-.37.42-.56.2.09.4.19.6.29Z"/>
        <path class="cls-1" d="M132.27,38.61c-.11.14-.33.14-.54-.04-.18-.15-.21-.37-.1-.51.12-.14.35-.14.53.02.19.17.22.38.1.52ZM129.3,40.95c.63-.74,1.25-1.47,1.88-2.21.17.14.34.29.5.44-.63.73-1.27,1.46-1.9,2.19-.16-.14-.32-.28-.48-.42Z"/>
        <path class="cls-1" d="M134.98,44.31c-.78.74-1.75.4-2.35-.2-.68-.67-.82-1.59-.2-2.27.66-.71,1.64-.58,2.38.15.76.76.82,1.71.18,2.32ZM132.92,42.28c-.44.46-.45,1.12,0,1.56.44.43,1.1.44,1.57-.02.35-.34.58-1.01.02-1.57-.57-.56-1.21-.38-1.59.02Z"/>
        <path class="cls-1" d="M137.06,45.62c.22-.2.4-.37.57-.54.13.15.27.3.4.46-.11.11-.22.23-.34.34,0,0,0,0,.01.01.33-.04.82.11,1.22.6.34.4.67,1.2-.11,1.82-.45.36-.9.72-1.35,1.08-.14-.17-.28-.34-.42-.51.43-.35.86-.71,1.29-1.06.36-.3.52-.72.1-1.22-.29-.35-.71-.45-1-.35-.07.02-.15.07-.22.13-.44.38-.88.76-1.32,1.14-.14-.17-.29-.33-.43-.49.53-.47,1.06-.94,1.58-1.4Z"/>
      </g>
      <g>
        <path class="cls-1" d="M36.61,128.11c.81.79,1.87,1.96,2.83,3.1,1.49,1.76,2.26,3.04,2.44,4.32.16,1.02-.14,2.01-.87,2.76-1.24,1.28-3.13,1.09-4.79,0-.01.01-.03.03-.04.04.69,1.28.6,2.54-.08,3.85-.9,1.76-1.47,3.02-1.54,3.68-.63-.61-1.24-1.23-1.85-1.86.05-.5.58-1.62,1.44-3.16.97-1.69.81-2.87-.56-4.56-.49-.58-.97-1.16-1.45-1.75-1.52,1.22-3.04,2.44-4.56,3.65-.54-.68-1.08-1.37-1.6-2.07,3.55-2.66,7.09-5.32,10.64-7.99ZM33.16,133.69c.51.63,1.02,1.26,1.54,1.87,1.65,1.93,3.49,2.34,4.59,1.27,1.25-1.22.71-2.86-.78-4.64-.69-.81-1.23-1.35-1.52-1.58-1.28,1.03-2.56,2.05-3.84,3.08Z"/>
        <path class="cls-1" d="M44.87,148.77c-1.41,1.92-.3,4.01,1.75,5.37,1.46.97,2.47,1.33,3.39,1.56-.1.43-.2.86-.29,1.3-.88-.2-2.33-.7-4.13-1.91-3.51-2.39-4.24-5.58-2.39-7.83,1.86-2.27,4.96-2.66,7.81-.71,3.22,2.15,2.77,5.01,1.87,6.58-.18.31-.37.53-.48.67-2.58-1.51-5.1-3.18-7.52-5.02ZM51.21,151.6c.61-.95,1-2.72-1.06-4.11-1.84-1.27-3.61-.57-4.5.29,1.8,1.36,3.66,2.64,5.55,3.82Z"/>
        <path class="cls-1" d="M62.51,153.14c.02,2.09.12,4.2.28,6.31.03.7.06,1.53.05,2.14.02,0,.03.01.05.02.43-.46.95-1.05,1.48-1.6,1.45-1.49,2.84-3.01,4.17-4.56.71.24,1.43.46,2.15.68-1.68,1.9-3.46,3.75-5.32,5.54-2.69,2.58-4.46,3.73-6.44,4.04-1.43.23-2.71,0-3.32-.2.01-.54.03-1.07.04-1.61.63.14,1.5.22,2.36.11.78-.08,1.82-.38,2.67-1.01.17-.13.3-.23.34-.32.04-.09.04-.24.02-.49-.39-3.37-.61-6.71-.64-10.03.71.34,1.42.66,2.13.97Z"/>
        <path class="cls-1" d="M78.54,162.52s.03,0,.05,0c.36-.28.85-.63,1.25-.91,1.35-.92,2.65-1.87,3.9-2.86.84.09,1.69.17,2.54.23-1.59,1.22-3.26,2.38-5,3.49,1.53,2.12,3.2,4.2,5.01,6.22-.97-.06-1.94-.14-2.9-.23-1.36-1.69-2.62-3.41-3.8-5.16-.43.27-.87.54-1.31.8-.21,1.2-.41,2.39-.62,3.59-.78-.13-1.56-.28-2.33-.43.93-4.64,1.87-9.28,2.81-13.93.64.13,1.29.25,1.93.36-.5,2.94-1.01,5.89-1.51,8.83Z"/>
        <path class="cls-1" d="M90.18,171.64c1.13-.04,2.11-.27,2.69-.74.66-.57.89-1.34.82-3.66-.07-2.7-.15-5.4-.22-8.1.7-.02,1.41-.05,2.11-.09.17,2.92.33,5.84.5,8.77.11,1.88-.23,3.12-1.41,4.05-1.07.82-2.9,1.17-4.25,1.15-.08-.46-.16-.92-.24-1.38ZM95.66,156.32c.06.58-.4,1.11-1.22,1.14-.78.03-1.28-.46-1.29-1.04-.01-.62.5-1.11,1.25-1.14.72-.03,1.23.42,1.27,1.04Z"/>
        <path class="cls-1" d="M112.59,166.12c-.17-.38-.33-.75-.5-1.13-.03,0-.05.01-.08.02-.51.92-1.73,1.93-3.58,2.32-2.64.54-4.21-.64-4.42-2.02-.35-2.34,2.06-3.91,6.63-5.05-.02-.06-.03-.13-.05-.19-.21-.78-.83-2.07-3.18-1.54-1.07.24-2.14.73-2.89,1.31-.23-.35-.46-.71-.68-1.06.87-.67,2.17-1.26,3.6-1.58,3.44-.8,4.84.82,5.4,2.7.34,1.16.68,2.32,1.02,3.48.24.81.52,1.58.86,2.17-.7.21-1.41.4-2.11.59ZM111,161.43c-2.39.59-5.07,1.44-4.73,3.29.21,1.12,1.32,1.47,2.51,1.21,1.66-.36,2.51-1.41,2.66-2.3.03-.2.03-.4-.01-.58-.14-.54-.28-1.08-.43-1.63Z"/>
        <path class="cls-1" d="M120.17,153.29c1.43,1.36,2.91,2.69,4.43,3.98.76.62,1.42,1.19,2.01,1.79.02-.01.05-.02.07-.04-.08-.85-.1-1.73-.12-2.71-.08-1.99-.22-3.97-.41-5.93.66-.36,1.32-.73,1.97-1.11.29,3.58.38,7.21.26,10.88-.69.35-1.39.69-2.1,1.01-2.91-2.21-5.65-4.55-8.23-7.01.71-.28,1.41-.57,2.11-.87Z"/>
        <path class="cls-1" d="M134.88,139.44c-.14,1.35-.32,2.71-.54,4.08-.41.31-.83.62-1.24.92.02-1.2.02-2.38-.01-3.56.6-.47,1.2-.95,1.8-1.44ZM139.68,153.26c-1.9-2.61-3.79-5.23-5.69-7.84.59-.43,1.18-.87,1.76-1.33,1.98,2.55,3.95,5.11,5.93,7.66-.66.51-1.33,1.01-2,1.5Z"/>
        <path class="cls-1" d="M147.13,139.75s.03-.03.04-.04c-.02-.47,0-1.1,0-1.61.05-1.7.04-3.39-.02-5.06.59-.72,1.17-1.45,1.75-2.19.05,2.12,0,4.27-.13,6.44,2.72-.22,5.49-.6,8.29-1.18-.65.86-1.31,1.71-1.98,2.54-2.25.32-4.47.52-6.65.61-.04.53-.08,1.07-.13,1.6.88.84,1.76,1.67,2.64,2.51-.58.62-1.18,1.23-1.78,1.82-3.33-3.37-6.66-6.73-9.99-10.1.5-.49.99-.99,1.47-1.51,2.17,2.06,4.33,4.12,6.5,6.17Z"/>
      </g>
      <path class="cls-4" d="M83.55,82.44l27.12-8.76,5.76,37.7c.48,3.12-1.47,5.97-4.96,7.44-3.84,1.6-7.94.51-9.17-2.42-1.23-2.95.88-6.63,4.71-8.23,1.73-.72,3.52-.9,5.08-.6l-3.47-22.72-19.81,6.84,4.22,28.27c.39,2.68-1.62,5.68-4.96,7.06-3.79,1.59-8.2.34-9.07-2.39-1.22-2.91.86-6.55,4.66-8.14,1.71-.72,3.46-.89,5-.6l-5.11-33.45h0ZM75.21,97.87l-5.24-34.94s7.54-1.57,16.77,8.96c0,0-.9-6.03-7.29-9.56-12.36-6.09-12.61-7.94-12.61-7.94-2.09.57-2.06,2.23-2.06,2.23l5.62,36.77c-1.68-.32-3.61-.12-5.5.66-4.17,1.73-6.46,5.75-5.12,8.95.96,3,5.81,4.37,9.97,2.62,3.66-1.53,5.88-4.81,5.45-7.76h0ZM91.98,72.21c1.27-.53,2.05-1.68,1.9-2.7h0s-1.82-12.16-1.82-12.16c0,0,2.62-.54,5.83,3.12,0,0-.32-2.1-2.54-3.32-4.3-2.12-4.38-2.76-4.38-2.76-.73.2-.72.77-.72.77l1.96,12.8c-.58-.11-1.25-.05-1.91.23-1.46.6-2.24,2-1.78,3.12.33,1.05,2.02,1.52,3.47.91ZM105.1,70.24c.89-.37,1.42-1.17,1.32-1.88l-1.27-8.47s1.83-.38,4.06,2.17c0,0-.22-1.46-1.77-2.32-3-1.48-3.06-1.93-3.06-1.93-.51.14-.5.54-.5.54l1.36,8.91c-.41-.08-.87-.03-1.33.16-1.01.42-1.57,1.39-1.24,2.17.23.73,1.41,1.06,2.42.64Z"/>
    </g>
  </g>
</svg>